<svg xmlns="http://www.w3.org/2000/svg" xmlns:xlink="http://www.w3.org/1999/xlink" width="500" zoomAndPan="magnify" viewBox="0 0 375 374.999991" height="500" preserveAspectRatio="xMidYMid meet" version="1.0"><defs><clipPath id="d17d919726"><path d="M 71 6 L 225 6 L 225 166 L 71 166 Z M 71 6 " clip-rule="nonzero"/></clipPath><clipPath id="8bfa2f7ad4"><path d="M 5.46875 342.070312 L 49.726562 -0.078125 L 392.621094 44.273438 L 348.363281 386.421875 Z M 5.46875 342.070312 " clip-rule="nonzero"/></clipPath><clipPath id="48fac5d926"><path d="M 5.46875 342.070312 L 49.726562 -0.078125 L 392.621094 44.273438 L 348.363281 386.421875 Z M 5.46875 342.070312 " clip-rule="nonzero"/></clipPath><clipPath id="3f11875d93"><path d="M 5.46875 342.070312 L 49.726562 -0.078125 L 392.621094 44.273438 L 348.363281 386.421875 Z M 5.46875 342.070312 " clip-rule="nonzero"/></clipPath><clipPath id="d2d24ea440"><path d="M 43 27 L 174 27 L 174 201 L 43 201 Z M 43 27 " clip-rule="nonzero"/></clipPath><clipPath id="5f0f3f5f95"><path d="M 5.46875 342.070312 L 49.726562 -0.078125 L 392.621094 44.273438 L 348.363281 386.421875 Z M 5.46875 342.070312 " clip-rule="nonzero"/></clipPath><clipPath id="146f8ebfe4"><path d="M 5.46875 342.070312 L 49.726562 -0.078125 L 392.621094 44.273438 L 348.363281 386.421875 Z M 5.46875 342.070312 " clip-rule="nonzero"/></clipPath><clipPath id="1787b0998d"><path d="M 5.46875 342.070312 L 49.726562 -0.078125 L 392.621094 44.273438 L 348.363281 386.421875 Z M 5.46875 342.070312 " clip-rule="nonzero"/></clipPath><clipPath id="d5a80a54bd"><path d="M 121 172 L 176 172 L 176 210 L 121 210 Z M 121 172 " clip-rule="nonzero"/></clipPath><clipPath id="efefbaf132"><path d="M 5.46875 342.070312 L 49.726562 -0.078125 L 392.621094 44.273438 L 348.363281 386.421875 Z M 5.46875 342.070312 " clip-rule="nonzero"/></clipPath><clipPath id="0d87d993b7"><path d="M 5.46875 342.070312 L 49.726562 -0.078125 L 392.621094 44.273438 L 348.363281 386.421875 Z M 5.46875 342.070312 " clip-rule="nonzero"/></clipPath><clipPath id="5ec86a5429"><path d="M 5.46875 342.070312 L 49.726562 -0.078125 L 392.621094 44.273438 L 348.363281 386.421875 Z M 5.46875 342.070312 " clip-rule="nonzero"/></clipPath><clipPath id="74cbf4288a"><path d="M 135 192 L 174 192 L 174 220 L 135 220 Z M 135 192 " clip-rule="nonzero"/></clipPath><clipPath id="ef2e1fe298"><path d="M 5.46875 342.070312 L 49.726562 -0.078125 L 392.621094 44.273438 L 348.363281 386.421875 Z M 5.46875 342.070312 " clip-rule="nonzero"/></clipPath><clipPath id="0d9e2eb4ff"><path d="M 5.46875 342.070312 L 49.726562 -0.078125 L 392.621094 44.273438 L 348.363281 386.421875 Z M 5.46875 342.070312 " clip-rule="nonzero"/></clipPath><clipPath id="7f0e35f7e5"><path d="M 5.46875 342.070312 L 49.726562 -0.078125 L 392.621094 44.273438 L 348.363281 386.421875 Z M 5.46875 342.070312 " clip-rule="nonzero"/></clipPath><clipPath id="d14b82923f"><path d="M 141 199 L 273 199 L 273 371 L 141 371 Z M 141 199 " clip-rule="nonzero"/></clipPath><clipPath id="aeaaa6e7de"><path d="M 5.46875 342.070312 L 49.726562 -0.078125 L 392.621094 44.273438 L 348.363281 386.421875 Z M 5.46875 342.070312 " clip-rule="nonzero"/></clipPath><clipPath id="94e8f98c4a"><path d="M 5.46875 342.070312 L 49.726562 -0.078125 L 392.621094 44.273438 L 348.363281 386.421875 Z M 5.46875 342.070312 " clip-rule="nonzero"/></clipPath><clipPath id="0b80f21918"><path d="M 5.46875 342.070312 L 49.726562 -0.078125 L 392.621094 44.273438 L 348.363281 386.421875 Z M 5.46875 342.070312 " clip-rule="nonzero"/></clipPath><clipPath id="5bcce8706b"><path d="M 188 118 L 232 118 L 232 169 L 188 169 Z M 188 118 " clip-rule="nonzero"/></clipPath><clipPath id="fc23eccb8e"><path d="M 5.46875 342.070312 L 49.726562 -0.078125 L 392.621094 44.273438 L 348.363281 386.421875 Z M 5.46875 342.070312 " clip-rule="nonzero"/></clipPath><clipPath id="f5a54af372"><path d="M 5.46875 342.070312 L 49.726562 -0.078125 L 392.621094 44.273438 L 348.363281 386.421875 Z M 5.46875 342.070312 " clip-rule="nonzero"/></clipPath><clipPath id="94f83523ed"><path d="M 5.46875 342.070312 L 49.726562 -0.078125 L 392.621094 44.273438 L 348.363281 386.421875 Z M 5.46875 342.070312 " clip-rule="nonzero"/></clipPath><clipPath id="e81a4c11ab"><path d="M 207 135 L 239 135 L 239 172 L 207 172 Z M 207 135 " clip-rule="nonzero"/></clipPath><clipPath id="0776c9aaf5"><path d="M 5.46875 342.070312 L 49.726562 -0.078125 L 392.621094 44.273438 L 348.363281 386.421875 Z M 5.46875 342.070312 " clip-rule="nonzero"/></clipPath><clipPath id="9d98865c50"><path d="M 5.46875 342.070312 L 49.726562 -0.078125 L 392.621094 44.273438 L 348.363281 386.421875 Z M 5.46875 342.070312 " clip-rule="nonzero"/></clipPath><clipPath id="f5f0150b70"><path d="M 5.46875 342.070312 L 49.726562 -0.078125 L 392.621094 44.273438 L 348.363281 386.421875 Z M 5.46875 342.070312 " clip-rule="nonzero"/></clipPath><clipPath id="95fd805c34"><path d="M 214 143 L 358 143 L 358 304 L 214 304 Z M 214 143 " clip-rule="nonzero"/></clipPath><clipPath id="c55e1d0da9"><path d="M 5.46875 342.070312 L 49.726562 -0.078125 L 392.621094 44.273438 L 348.363281 386.421875 Z M 5.46875 342.070312 " clip-rule="nonzero"/></clipPath><clipPath id="26bdeb4e35"><path d="M 5.46875 342.070312 L 49.726562 -0.078125 L 392.621094 44.273438 L 348.363281 386.421875 Z M 5.46875 342.070312 " clip-rule="nonzero"/></clipPath><clipPath id="8054b8860e"><path d="M 5.46875 342.070312 L 49.726562 -0.078125 L 392.621094 44.273438 L 348.363281 386.421875 Z M 5.46875 342.070312 " clip-rule="nonzero"/></clipPath><clipPath id="3df3940791"><path d="M 114 90 L 163 90 L 163 140 L 114 140 Z M 114 90 " clip-rule="nonzero"/></clipPath><clipPath id="5a301a4635"><path d="M 5.46875 342.070312 L 49.726562 -0.078125 L 392.621094 44.273438 L 348.363281 386.421875 Z M 5.46875 342.070312 " clip-rule="nonzero"/></clipPath><clipPath id="593a7696f2"><path d="M 5.46875 342.070312 L 49.726562 -0.078125 L 392.621094 44.273438 L 348.363281 386.421875 Z M 5.46875 342.070312 " clip-rule="nonzero"/></clipPath><clipPath id="65f591bae1"><path d="M 5.46875 342.070312 L 49.726562 -0.078125 L 392.621094 44.273438 L 348.363281 386.421875 Z M 5.46875 342.070312 " clip-rule="nonzero"/></clipPath><clipPath id="4bef0c1b5e"><path d="M 114 90 L 164 90 L 164 140 L 114 140 Z M 114 90 " clip-rule="nonzero"/></clipPath><clipPath id="6ca9305c1e"><path d="M 5.46875 342.070312 L 49.726562 -0.078125 L 392.621094 44.273438 L 348.363281 386.421875 Z M 5.46875 342.070312 " clip-rule="nonzero"/></clipPath><clipPath id="6a7dfe7ddb"><path d="M 5.46875 342.070312 L 49.726562 -0.078125 L 392.621094 44.273438 L 348.363281 386.421875 Z M 5.46875 342.070312 " clip-rule="nonzero"/></clipPath><clipPath id="442863c0ad"><path d="M 5.46875 342.070312 L 49.726562 -0.078125 L 392.621094 44.273438 L 348.363281 386.421875 Z M 5.46875 342.070312 " clip-rule="nonzero"/></clipPath><clipPath id="7fa6938367"><path d="M 127 104 L 150 104 L 150 127 L 127 127 Z M 127 104 " clip-rule="nonzero"/></clipPath><clipPath id="1f3e6fe70d"><path d="M 5.46875 342.070312 L 49.726562 -0.078125 L 392.621094 44.273438 L 348.363281 386.421875 Z M 5.46875 342.070312 " clip-rule="nonzero"/></clipPath><clipPath id="1b06da5b7e"><path d="M 5.46875 342.070312 L 49.726562 -0.078125 L 392.621094 44.273438 L 348.363281 386.421875 Z M 5.46875 342.070312 " clip-rule="nonzero"/></clipPath><clipPath id="6000bb47e7"><path d="M 5.46875 342.070312 L 49.726562 -0.078125 L 392.621094 44.273438 L 348.363281 386.421875 Z M 5.46875 342.070312 " clip-rule="nonzero"/></clipPath></defs><g clip-path="url(#d17d919726)"><g clip-path="url(#8bfa2f7ad4)"><g clip-path="url(#48fac5d926)"><g clip-path="url(#3f11875d93)"><path fill="#808385" d="M 149.988281 37.402344 L 185.390625 97.257812 L 224.335938 124.417969 L 195.683594 165.527344 L 156.738281 138.371094 L 118.257812 88.441406 C 125.644531 82.746094 127.015625 72.144531 121.320312 64.753906 L 106.445312 45.449219 C 100.753906 38.066406 90.152344 36.695312 82.765625 42.386719 L 71.144531 27.3125 L 98.308594 6.132812 L 149.988281 37.402344 " fill-opacity="1" fill-rule="nonzero"/></g></g></g></g><g clip-path="url(#d2d24ea440)"><g clip-path="url(#5f0f3f5f95)"><g clip-path="url(#146f8ebfe4)"><g clip-path="url(#1787b0998d)"><path fill="#9ca0a2" d="M 60.835938 106.15625 L 109.699219 155.628906 L 126.046875 200.21875 L 173.082031 182.960938 L 156.738281 138.371094 L 118.257812 88.441406 C 110.871094 94.140625 100.269531 92.765625 94.574219 85.378906 L 79.703125 66.078125 C 74.007812 58.691406 75.382812 48.082031 82.765625 42.386719 L 71.144531 27.3125 L 43.761719 48.207031 L 60.835938 106.15625 " fill-opacity="1" fill-rule="nonzero"/></g></g></g></g><g clip-path="url(#d5a80a54bd)"><g clip-path="url(#efefbaf132)"><g clip-path="url(#0d87d993b7)"><g clip-path="url(#5ec86a5429)"><path fill="#f5bb16" d="M 158.285156 173.609375 C 164.851562 171.011719 172.28125 174.234375 174.878906 180.804688 C 177.464844 187.378906 174.246094 194.804688 167.679688 197.40625 L 139.429688 208.566406 C 132.855469 211.160156 125.433594 207.941406 122.835938 201.367188 C 120.238281 194.792969 123.46875 187.367188 130.035156 184.769531 L 158.285156 173.609375 " fill-opacity="1" fill-rule="nonzero"/></g></g></g></g><g clip-path="url(#74cbf4288a)"><g clip-path="url(#ef2e1fe298)"><g clip-path="url(#0d9e2eb4ff)"><g clip-path="url(#7f0e35f7e5)"><path fill="#f5bb16" d="M 161.460938 193.472656 C 166.152344 191.621094 171.457031 193.921875 173.3125 198.617188 C 175.164062 203.308594 172.863281 208.617188 168.171875 210.472656 L 147.992188 218.441406 C 143.300781 220.296875 137.996094 217.996094 136.140625 213.300781 C 134.292969 208.605469 136.597656 203.296875 141.285156 201.445312 L 161.460938 193.472656 " fill-opacity="1" fill-rule="nonzero"/></g></g></g></g><g clip-path="url(#d14b82923f)"><g clip-path="url(#aeaaa6e7de)"><g clip-path="url(#94e8f98c4a)"><g clip-path="url(#0b80f21918)"><path fill="#f5bb16" d="M 158.714844 199.667969 C 167.15625 198.300781 175.648438 205.378906 178.695312 215.066406 C 193 261.714844 223.207031 301.722656 263.878906 328.027344 C 272.34375 333.46875 275.382812 345.15625 270.035156 355.011719 C 268.953125 356.941406 267.867188 358.863281 266.785156 360.789062 C 261.453125 370.632812 248.214844 373.433594 238.082031 366.023438 C 190.652344 331.65625 156.929688 281.761719 142.824219 225.257812 C 139.832031 213.152344 145.28125 201.925781 153.691406 200.578125 C 155.371094 200.277344 157.039062 199.972656 158.714844 199.667969 " fill-opacity="1" fill-rule="nonzero"/></g></g></g></g><g clip-path="url(#5bcce8706b)"><g clip-path="url(#fc23eccb8e)"><g clip-path="url(#f5a54af372)"><g clip-path="url(#94f83523ed)"><path fill="#f5bb16" d="M 190.722656 148.59375 C 186.539062 154.285156 187.765625 162.292969 193.457031 166.472656 C 199.152344 170.652344 207.160156 169.425781 211.335938 163.730469 L 229.308594 139.246094 C 233.492188 133.546875 232.265625 125.546875 226.574219 121.359375 C 220.882812 117.175781 212.878906 118.40625 208.699219 124.101562 L 190.722656 148.59375 " fill-opacity="1" fill-rule="nonzero"/></g></g></g></g><g clip-path="url(#e81a4c11ab)"><g clip-path="url(#0776c9aaf5)"><g clip-path="url(#9d98865c50)"><g clip-path="url(#f5f0150b70)"><path fill="#f5bb16" d="M 209.117188 156.722656 C 206.136719 160.785156 207.007812 166.503906 211.078125 169.488281 C 215.140625 172.480469 220.855469 171.601562 223.84375 167.53125 L 236.683594 150.042969 C 239.667969 145.976562 238.796875 140.253906 234.726562 137.269531 C 230.664062 134.28125 224.941406 135.160156 221.960938 139.230469 L 209.117188 156.722656 " fill-opacity="1" fill-rule="nonzero"/></g></g></g></g><g clip-path="url(#95fd805c34)"><g clip-path="url(#c55e1d0da9)"><g clip-path="url(#26bdeb4e35)"><g clip-path="url(#8054b8860e)"><path fill="#f5bb16" d="M 215.804688 155.640625 C 212.335938 163.457031 217.015625 173.472656 225.609375 178.882812 C 267.070312 204.59375 298.058594 243.992188 313.140625 290.039062 C 316.246094 299.613281 326.769531 305.527344 337.660156 302.855469 C 339.800781 302.300781 341.941406 301.738281 344.078125 301.183594 C 354.945312 298.535156 361.019531 286.4375 356.4375 274.746094 C 335.28125 220.117188 295.628906 174.796875 244.59375 146.773438 C 233.644531 140.804688 221.410156 143.21875 217.964844 151.007812 C 217.242188 152.554688 216.527344 154.097656 215.804688 155.640625 " fill-opacity="1" fill-rule="nonzero"/></g></g></g></g><g clip-path="url(#3df3940791)"><g clip-path="url(#5a301a4635)"><g clip-path="url(#593a7696f2)"><g clip-path="url(#65f591bae1)"><path fill="#808385" d="M 123.96875 95.855469 C 134.570312 87.679688 149.78125 89.648438 157.953125 100.25 C 166.125 110.847656 164.15625 126.066406 153.554688 134.242188 C 142.957031 142.417969 127.746094 140.449219 119.570312 129.851562 C 111.40625 119.242188 113.367188 104.023438 123.96875 95.855469 " fill-opacity="1" fill-rule="nonzero"/></g></g></g></g><g clip-path="url(#4bef0c1b5e)"><g clip-path="url(#6ca9305c1e)"><g clip-path="url(#6a7dfe7ddb)"><g clip-path="url(#442863c0ad)"><path fill="#4c4b4c" d="M 123.96875 95.855469 L 124.164062 96.105469 C 129.394531 92.070312 135.761719 90.542969 141.835938 91.328125 C 147.902344 92.113281 153.667969 95.214844 157.699219 100.445312 C 161.730469 105.679688 163.257812 112.046875 162.476562 118.117188 C 161.6875 124.1875 158.589844 129.957031 153.359375 133.988281 C 148.125 138.03125 141.757812 139.558594 135.679688 138.773438 C 129.613281 137.988281 123.851562 134.886719 119.824219 129.65625 C 115.792969 124.421875 114.257812 118.058594 115.042969 111.984375 C 115.828125 105.910156 118.925781 100.140625 124.164062 96.105469 L 123.773438 95.601562 C 118.40625 99.742188 115.226562 105.671875 114.417969 111.902344 C 113.613281 118.132812 115.1875 124.671875 119.320312 130.042969 C 123.453125 135.40625 129.375 138.597656 135.601562 139.398438 C 141.832031 140.207031 148.375 138.636719 153.75 134.496094 C 159.113281 130.355469 162.296875 124.425781 163.105469 118.195312 C 163.910156 111.964844 162.34375 105.425781 158.203125 100.054688 C 154.066406 94.6875 148.144531 91.503906 141.914062 90.699219 C 135.683594 89.890625 129.144531 91.460938 123.773438 95.601562 L 123.96875 95.855469 " fill-opacity="1" fill-rule="nonzero"/></g></g></g></g><g clip-path="url(#7fa6938367)"><g clip-path="url(#1f3e6fe70d)"><g clip-path="url(#1b06da5b7e)"><g clip-path="url(#6000bb47e7)"><path fill="#4c4b4c" d="M 132.03125 106.308594 C 136.851562 102.589844 143.777344 103.484375 147.5 108.308594 C 151.21875 113.136719 150.324219 120.066406 145.5 123.785156 C 140.667969 127.503906 133.742188 126.613281 130.027344 121.785156 C 126.308594 116.960938 127.203125 110.03125 132.03125 106.308594 " fill-opacity="1" fill-rule="nonzero"/></g></g></g></g></svg>