<svg xmlns="http://www.w3.org/2000/svg" xmlns:xlink="http://www.w3.org/1999/xlink" zoomAndPan="magnify" preserveAspectRatio="xMidYMid meet" version="1.0" viewBox="6.04 130.29 364.7 122.85"><defs><g/><clipPath id="9e3f0e3e8a"><rect x="0" width="253" y="0" height="138"/></clipPath><clipPath id="a11489dcc3"><rect x="0" width="127" y="0" height="18"/></clipPath><clipPath id="c4ddd66bd3"><path d="M 6.035156 246.257812 L 132.421875 246.257812 L 132.421875 251.671875 L 6.035156 251.671875 Z M 6.035156 246.257812 " clip-rule="nonzero"/></clipPath><clipPath id="f7a19563a5"><path d="M 0.0351562 0.257812 L 126.421875 0.257812 L 126.421875 5.671875 L 0.0351562 5.671875 Z M 0.0351562 0.257812 " clip-rule="nonzero"/></clipPath><clipPath id="06a0ec8389"><rect x="0" width="127" y="0" height="6"/></clipPath><clipPath id="c60454e374"><path d="M 275 130 L 327 130 L 327 184 L 275 184 Z M 275 130 " clip-rule="nonzero"/></clipPath><clipPath id="047cc0bcdb"><path d="M 253.738281 242.027344 L 268.457031 128.226562 L 382.257812 142.945312 L 367.539062 256.746094 Z M 253.738281 242.027344 " clip-rule="nonzero"/></clipPath><clipPath id="cbe309cb8b"><path d="M 253.738281 242.027344 L 268.457031 128.226562 L 382.257812 142.945312 L 367.539062 256.746094 Z M 253.738281 242.027344 " clip-rule="nonzero"/></clipPath><clipPath id="324c43dfa4"><path d="M 253.738281 242.027344 L 268.457031 128.226562 L 382.257812 142.945312 L 367.539062 256.746094 Z M 253.738281 242.027344 " clip-rule="nonzero"/></clipPath><clipPath id="17d149e1c0"><path d="M 266 137 L 310 137 L 310 195 L 266 195 Z M 266 137 " clip-rule="nonzero"/></clipPath><clipPath id="1228e87d27"><path d="M 253.738281 242.027344 L 268.457031 128.226562 L 382.257812 142.945312 L 367.539062 256.746094 Z M 253.738281 242.027344 " clip-rule="nonzero"/></clipPath><clipPath id="d0f71ce76b"><path d="M 253.738281 242.027344 L 268.457031 128.226562 L 382.257812 142.945312 L 367.539062 256.746094 Z M 253.738281 242.027344 " clip-rule="nonzero"/></clipPath><clipPath id="6c8a919070"><path d="M 253.738281 242.027344 L 268.457031 128.226562 L 382.257812 142.945312 L 367.539062 256.746094 Z M 253.738281 242.027344 " clip-rule="nonzero"/></clipPath><clipPath id="be64e248b4"><path d="M 292 185 L 311 185 L 311 198 L 292 198 Z M 292 185 " clip-rule="nonzero"/></clipPath><clipPath id="975f8a4470"><path d="M 253.738281 242.027344 L 268.457031 128.226562 L 382.257812 142.945312 L 367.539062 256.746094 Z M 253.738281 242.027344 " clip-rule="nonzero"/></clipPath><clipPath id="b9f59ddbf8"><path d="M 253.738281 242.027344 L 268.457031 128.226562 L 382.257812 142.945312 L 367.539062 256.746094 Z M 253.738281 242.027344 " clip-rule="nonzero"/></clipPath><clipPath id="91650a587d"><path d="M 253.738281 242.027344 L 268.457031 128.226562 L 382.257812 142.945312 L 367.539062 256.746094 Z M 253.738281 242.027344 " clip-rule="nonzero"/></clipPath><clipPath id="dc5d95507d"><path d="M 296 192 L 310 192 L 310 202 L 296 202 Z M 296 192 " clip-rule="nonzero"/></clipPath><clipPath id="40cee37aa4"><path d="M 253.738281 242.027344 L 268.457031 128.226562 L 382.257812 142.945312 L 367.539062 256.746094 Z M 253.738281 242.027344 " clip-rule="nonzero"/></clipPath><clipPath id="e1dfcd9521"><path d="M 253.738281 242.027344 L 268.457031 128.226562 L 382.257812 142.945312 L 367.539062 256.746094 Z M 253.738281 242.027344 " clip-rule="nonzero"/></clipPath><clipPath id="7eb7576a63"><path d="M 253.738281 242.027344 L 268.457031 128.226562 L 382.257812 142.945312 L 367.539062 256.746094 Z M 253.738281 242.027344 " clip-rule="nonzero"/></clipPath><clipPath id="cfb69e721e"><path d="M 299 194 L 343 194 L 343 252 L 299 252 Z M 299 194 " clip-rule="nonzero"/></clipPath><clipPath id="ff8ea1ee35"><path d="M 253.738281 242.027344 L 268.457031 128.226562 L 382.257812 142.945312 L 367.539062 256.746094 Z M 253.738281 242.027344 " clip-rule="nonzero"/></clipPath><clipPath id="85099d7915"><path d="M 253.738281 242.027344 L 268.457031 128.226562 L 382.257812 142.945312 L 367.539062 256.746094 Z M 253.738281 242.027344 " clip-rule="nonzero"/></clipPath><clipPath id="38fb118778"><path d="M 253.738281 242.027344 L 268.457031 128.226562 L 382.257812 142.945312 L 367.539062 256.746094 Z M 253.738281 242.027344 " clip-rule="nonzero"/></clipPath><clipPath id="2b4aed7424"><path d="M 314 167 L 329 167 L 329 185 L 314 185 Z M 314 167 " clip-rule="nonzero"/></clipPath><clipPath id="89debc2009"><path d="M 253.738281 242.027344 L 268.457031 128.226562 L 382.257812 142.945312 L 367.539062 256.746094 Z M 253.738281 242.027344 " clip-rule="nonzero"/></clipPath><clipPath id="789288e8c1"><path d="M 253.738281 242.027344 L 268.457031 128.226562 L 382.257812 142.945312 L 367.539062 256.746094 Z M 253.738281 242.027344 " clip-rule="nonzero"/></clipPath><clipPath id="d17fb4db55"><path d="M 253.738281 242.027344 L 268.457031 128.226562 L 382.257812 142.945312 L 367.539062 256.746094 Z M 253.738281 242.027344 " clip-rule="nonzero"/></clipPath><clipPath id="27fc70027a"><path d="M 320 173 L 332 173 L 332 186 L 320 186 Z M 320 173 " clip-rule="nonzero"/></clipPath><clipPath id="2c60b1304d"><path d="M 253.738281 242.027344 L 268.457031 128.226562 L 382.257812 142.945312 L 367.539062 256.746094 Z M 253.738281 242.027344 " clip-rule="nonzero"/></clipPath><clipPath id="92b627c702"><path d="M 253.738281 242.027344 L 268.457031 128.226562 L 382.257812 142.945312 L 367.539062 256.746094 Z M 253.738281 242.027344 " clip-rule="nonzero"/></clipPath><clipPath id="870ee11af8"><path d="M 253.738281 242.027344 L 268.457031 128.226562 L 382.257812 142.945312 L 367.539062 256.746094 Z M 253.738281 242.027344 " clip-rule="nonzero"/></clipPath><clipPath id="120f310f2b"><path d="M 323 175 L 371 175 L 371 230 L 323 230 Z M 323 175 " clip-rule="nonzero"/></clipPath><clipPath id="5d5209db15"><path d="M 253.738281 242.027344 L 268.457031 128.226562 L 382.257812 142.945312 L 367.539062 256.746094 Z M 253.738281 242.027344 " clip-rule="nonzero"/></clipPath><clipPath id="38981b9049"><path d="M 253.738281 242.027344 L 268.457031 128.226562 L 382.257812 142.945312 L 367.539062 256.746094 Z M 253.738281 242.027344 " clip-rule="nonzero"/></clipPath><clipPath id="680a55054a"><path d="M 253.738281 242.027344 L 268.457031 128.226562 L 382.257812 142.945312 L 367.539062 256.746094 Z M 253.738281 242.027344 " clip-rule="nonzero"/></clipPath><clipPath id="8221f554bf"><path d="M 289 158 L 307 158 L 307 175 L 289 175 Z M 289 158 " clip-rule="nonzero"/></clipPath><clipPath id="b235746a4f"><path d="M 253.738281 242.027344 L 268.457031 128.226562 L 382.257812 142.945312 L 367.539062 256.746094 Z M 253.738281 242.027344 " clip-rule="nonzero"/></clipPath><clipPath id="77a6e4584c"><path d="M 253.738281 242.027344 L 268.457031 128.226562 L 382.257812 142.945312 L 367.539062 256.746094 Z M 253.738281 242.027344 " clip-rule="nonzero"/></clipPath><clipPath id="26b3fa0bcf"><path d="M 253.738281 242.027344 L 268.457031 128.226562 L 382.257812 142.945312 L 367.539062 256.746094 Z M 253.738281 242.027344 " clip-rule="nonzero"/></clipPath><clipPath id="c878c4b804"><path d="M 294 162 L 302 162 L 302 171 L 294 171 Z M 294 162 " clip-rule="nonzero"/></clipPath><clipPath id="ad2dcd3d45"><path d="M 253.738281 242.027344 L 268.457031 128.226562 L 382.257812 142.945312 L 367.539062 256.746094 Z M 253.738281 242.027344 " clip-rule="nonzero"/></clipPath><clipPath id="64b8068787"><path d="M 253.738281 242.027344 L 268.457031 128.226562 L 382.257812 142.945312 L 367.539062 256.746094 Z M 253.738281 242.027344 " clip-rule="nonzero"/></clipPath><clipPath id="84f3e98384"><path d="M 253.738281 242.027344 L 268.457031 128.226562 L 382.257812 142.945312 L 367.539062 256.746094 Z M 253.738281 242.027344 " clip-rule="nonzero"/></clipPath></defs><g transform="matrix(1, 0, 0, 1, 23, 117)"><g clip-path="url(#9e3f0e3e8a)"><g fill="#ffffff" fill-opacity="1"><g transform="translate(3.421014, 107.440946)"><g><path d="M 29.1875 -57.125 C 34.382812 -57.125 38.335938 -55.988281 41.046875 -53.71875 C 43.765625 -51.457031 45.46875 -48.066406 46.15625 -43.546875 L 33.25 -39.140625 C 33.03125 -39.816406 32.84375 -40.472656 32.6875 -41.109375 C 32.539062 -41.753906 32.316406 -42.335938 32.015625 -42.859375 C 31.710938 -43.390625 31.296875 -43.804688 30.765625 -44.109375 C 30.234375 -44.410156 29.515625 -44.5625 28.609375 -44.5625 C 27.109375 -44.5625 26.113281 -44.085938 25.625 -43.140625 C 25.132812 -42.203125 24.890625 -41.320312 24.890625 -40.5 C 24.890625 -39.0625 25.359375 -37.910156 26.296875 -37.046875 C 27.242188 -36.179688 28.128906 -35.484375 28.953125 -34.953125 L 31.890625 -33.25 C 33.253906 -32.425781 34.535156 -31.597656 35.734375 -30.765625 C 36.941406 -29.929688 38.015625 -28.929688 38.953125 -27.765625 C 39.898438 -26.597656 40.65625 -25.179688 41.21875 -23.515625 C 41.789062 -21.859375 42.078125 -19.828125 42.078125 -17.421875 C 42.078125 -14.859375 41.585938 -12.441406 40.609375 -10.171875 C 39.628906 -7.910156 38.175781 -5.910156 36.25 -4.171875 C 34.332031 -2.441406 31.9375 -1.066406 29.0625 -0.046875 C 26.195312 0.960938 22.878906 1.46875 19.109375 1.46875 C 16.628906 1.46875 14.160156 1.128906 11.703125 0.453125 C 9.253906 -0.222656 7.050781 -0.976562 5.09375 -1.8125 C 2.75 -2.71875 0.5625 -3.8125 -1.46875 -5.09375 L 5.546875 -17.765625 C 7.128906 -16.554688 8.710938 -15.535156 10.296875 -14.703125 C 11.578125 -13.867188 12.96875 -13.148438 14.46875 -12.546875 C 15.976562 -11.953125 17.335938 -11.65625 18.546875 -11.65625 C 20.503906 -11.65625 21.9375 -12.050781 22.84375 -12.84375 C 23.75 -13.632812 24.203125 -14.671875 24.203125 -15.953125 C 24.203125 -17.453125 23.820312 -18.671875 23.0625 -19.609375 C 22.3125 -20.554688 21.144531 -21.445312 19.5625 -22.28125 L 15.828125 -24.203125 C 14.847656 -24.660156 13.847656 -25.265625 12.828125 -26.015625 C 11.816406 -26.765625 10.875 -27.742188 10 -28.953125 C 9.132812 -30.160156 8.421875 -31.613281 7.859375 -33.3125 C 7.296875 -35.007812 7.015625 -37.0625 7.015625 -39.46875 C 7.015625 -42.039062 7.484375 -44.398438 8.421875 -46.546875 C 9.367188 -48.691406 10.765625 -50.554688 12.609375 -52.140625 C 14.460938 -53.722656 16.78125 -54.945312 19.5625 -55.8125 C 22.351562 -56.6875 25.5625 -57.125 29.1875 -57.125 Z M 29.1875 -57.125 "/></g></g></g><g fill="#ffffff" fill-opacity="1"><g transform="translate(51.48647, 107.440946)"><g><path d="M 23.40625 -12.328125 C 24.539062 -12.328125 25.75 -13.15625 27.03125 -14.8125 C 28.3125 -16.476562 29.535156 -18.59375 30.703125 -21.15625 C 31.878906 -23.71875 32.957031 -26.523438 33.9375 -29.578125 C 34.914062 -32.628906 35.742188 -35.515625 36.421875 -38.234375 L 37.546875 -43.328125 C 36.722656 -43.617188 35.59375 -43.765625 34.15625 -43.765625 C 31.519531 -43.765625 29.351562 -42.800781 27.65625 -40.875 C 25.957031 -38.957031 24.597656 -36.640625 23.578125 -33.921875 C 22.566406 -31.210938 21.851562 -28.382812 21.4375 -25.4375 C 21.019531 -22.5 20.8125 -20.050781 20.8125 -18.09375 C 20.8125 -16.507812 20.976562 -15.148438 21.3125 -14.015625 C 21.65625 -12.890625 22.351562 -12.328125 23.40625 -12.328125 Z M 17.984375 1.015625 C 15.117188 1.015625 12.703125 0.429688 10.734375 -0.734375 C 8.773438 -1.898438 7.191406 -3.40625 5.984375 -5.25 C 4.785156 -7.101562 3.898438 -9.179688 3.328125 -11.484375 C 2.765625 -13.785156 2.484375 -16.101562 2.484375 -18.4375 C 2.484375 -23.863281 3.179688 -28.894531 4.578125 -33.53125 C 5.972656 -38.175781 8.046875 -42.234375 10.796875 -45.703125 C 13.554688 -49.171875 16.953125 -51.882812 20.984375 -53.84375 C 25.015625 -55.800781 29.671875 -56.78125 34.953125 -56.78125 C 37.441406 -56.78125 39.679688 -56.570312 41.671875 -56.15625 C 43.671875 -55.738281 45.726562 -55.039062 47.84375 -54.0625 L 56.890625 -53.5 L 52.140625 -28.84375 C 51.765625 -27.03125 51.484375 -25.3125 51.296875 -23.6875 C 51.109375 -22.070312 51.015625 -20.585938 51.015625 -19.234375 C 51.015625 -16.066406 51.390625 -13.367188 52.140625 -11.140625 C 52.898438 -8.910156 54.03125 -6.628906 55.53125 -4.296875 L 41.28125 1.359375 C 40.15625 0.078125 39.195312 -1.484375 38.40625 -3.328125 C 37.613281 -5.179688 37.21875 -7.238281 37.21875 -9.5 C 37.21875 -10.40625 37.234375 -11.421875 37.265625 -12.546875 C 37.304688 -13.679688 37.398438 -15.003906 37.546875 -16.515625 L 36.078125 -13.34375 C 33.671875 -8.144531 30.9375 -4.453125 27.875 -2.265625 C 24.820312 -0.078125 21.523438 1.015625 17.984375 1.015625 Z M 17.984375 1.015625 "/></g></g></g><g fill="#ffffff" fill-opacity="1"><g transform="translate(111.540027, 107.440946)"><g><path d="M 87.09375 -42.75 C 87.09375 -39.582031 86.734375 -36.601562 86.015625 -33.8125 C 85.296875 -31.03125 84.519531 -28.394531 83.6875 -25.90625 C 82.863281 -23.414062 82.09375 -21.039062 81.375 -18.78125 C 80.664062 -16.519531 80.3125 -14.332031 80.3125 -12.21875 C 80.3125 -10.863281 80.40625 -9.109375 80.59375 -6.953125 C 80.78125 -4.804688 81.175781 -2.488281 81.78125 0 L 64.140625 0 C 63.753906 -2.257812 63.523438 -4.007812 63.453125 -5.25 C 63.378906 -6.5 63.34375 -7.613281 63.34375 -8.59375 C 63.34375 -11.3125 63.660156 -13.96875 64.296875 -16.5625 C 64.941406 -19.164062 65.617188 -21.726562 66.328125 -24.25 C 67.046875 -26.78125 67.726562 -29.253906 68.375 -31.671875 C 69.019531 -34.085938 69.34375 -36.460938 69.34375 -38.796875 C 69.34375 -39.847656 69.148438 -40.691406 68.765625 -41.328125 C 68.390625 -41.972656 67.75 -42.296875 66.84375 -42.296875 C 65.488281 -42.296875 64.148438 -41.5625 62.828125 -40.09375 C 61.515625 -38.625 60.289062 -36.757812 59.15625 -34.5 C 58.019531 -32.238281 57 -29.726562 56.09375 -26.96875 C 55.195312 -24.21875 54.484375 -21.5625 53.953125 -19 L 50.328125 0 L 32.796875 0 L 38.5625 -28.953125 C 38.945312 -30.835938 39.234375 -32.628906 39.421875 -34.328125 C 39.609375 -36.023438 39.703125 -37.515625 39.703125 -38.796875 C 39.703125 -39.847656 39.507812 -40.691406 39.125 -41.328125 C 38.75 -41.972656 38.070312 -42.296875 37.09375 -42.296875 C 35.738281 -42.296875 34.398438 -41.5625 33.078125 -40.09375 C 31.765625 -38.625 30.539062 -36.738281 29.40625 -34.4375 C 28.28125 -32.132812 27.265625 -29.609375 26.359375 -26.859375 C 25.453125 -24.109375 24.734375 -21.453125 24.203125 -18.890625 L 20.578125 0 L 3.046875 0 L 8.828125 -28.953125 C 9.203125 -30.835938 9.484375 -32.585938 9.671875 -34.203125 C 9.859375 -35.828125 9.953125 -37.320312 9.953125 -38.6875 C 9.953125 -42.226562 9.476562 -45.050781 8.53125 -47.15625 C 7.59375 -49.269531 6.898438 -50.707031 6.453125 -51.46875 L 20.703125 -57 C 21.753906 -55.800781 22.539062 -54.390625 23.0625 -52.765625 C 23.59375 -51.140625 23.859375 -49.425781 23.859375 -47.625 C 23.859375 -46.789062 23.800781 -45.789062 23.6875 -44.625 C 23.582031 -43.457031 23.378906 -41.664062 23.078125 -39.25 L 24.546875 -42.421875 C 26.804688 -47.390625 29.382812 -51.023438 32.28125 -53.328125 C 35.1875 -55.628906 38.828125 -56.78125 43.203125 -56.78125 C 51.046875 -56.78125 55.535156 -53.238281 56.671875 -46.15625 C 58.703125 -49.914062 61.019531 -52.625 63.625 -54.28125 C 66.226562 -55.945312 69.335938 -56.78125 72.953125 -56.78125 C 77.859375 -56.78125 81.441406 -55.570312 83.703125 -53.15625 C 85.960938 -50.75 87.09375 -47.28125 87.09375 -42.75 Z M 87.09375 -42.75 "/></g></g></g><g fill="#ffffff" fill-opacity="1"><g transform="translate(202.242375, 107.440946)"><g><path d="M 29.1875 -57.125 C 34.382812 -57.125 38.335938 -55.988281 41.046875 -53.71875 C 43.765625 -51.457031 45.46875 -48.066406 46.15625 -43.546875 L 33.25 -39.140625 C 33.03125 -39.816406 32.84375 -40.472656 32.6875 -41.109375 C 32.539062 -41.753906 32.316406 -42.335938 32.015625 -42.859375 C 31.710938 -43.390625 31.296875 -43.804688 30.765625 -44.109375 C 30.234375 -44.410156 29.515625 -44.5625 28.609375 -44.5625 C 27.109375 -44.5625 26.113281 -44.085938 25.625 -43.140625 C 25.132812 -42.203125 24.890625 -41.320312 24.890625 -40.5 C 24.890625 -39.0625 25.359375 -37.910156 26.296875 -37.046875 C 27.242188 -36.179688 28.128906 -35.484375 28.953125 -34.953125 L 31.890625 -33.25 C 33.253906 -32.425781 34.535156 -31.597656 35.734375 -30.765625 C 36.941406 -29.929688 38.015625 -28.929688 38.953125 -27.765625 C 39.898438 -26.597656 40.65625 -25.179688 41.21875 -23.515625 C 41.789062 -21.859375 42.078125 -19.828125 42.078125 -17.421875 C 42.078125 -14.859375 41.585938 -12.441406 40.609375 -10.171875 C 39.628906 -7.910156 38.175781 -5.910156 36.25 -4.171875 C 34.332031 -2.441406 31.9375 -1.066406 29.0625 -0.046875 C 26.195312 0.960938 22.878906 1.46875 19.109375 1.46875 C 16.628906 1.46875 14.160156 1.128906 11.703125 0.453125 C 9.253906 -0.222656 7.050781 -0.976562 5.09375 -1.8125 C 2.75 -2.71875 0.5625 -3.8125 -1.46875 -5.09375 L 5.546875 -17.765625 C 7.128906 -16.554688 8.710938 -15.535156 10.296875 -14.703125 C 11.578125 -13.867188 12.96875 -13.148438 14.46875 -12.546875 C 15.976562 -11.953125 17.335938 -11.65625 18.546875 -11.65625 C 20.503906 -11.65625 21.9375 -12.050781 22.84375 -12.84375 C 23.75 -13.632812 24.203125 -14.671875 24.203125 -15.953125 C 24.203125 -17.453125 23.820312 -18.671875 23.0625 -19.609375 C 22.3125 -20.554688 21.144531 -21.445312 19.5625 -22.28125 L 15.828125 -24.203125 C 14.847656 -24.660156 13.847656 -25.265625 12.828125 -26.015625 C 11.816406 -26.765625 10.875 -27.742188 10 -28.953125 C 9.132812 -30.160156 8.421875 -31.613281 7.859375 -33.3125 C 7.296875 -35.007812 7.015625 -37.0625 7.015625 -39.46875 C 7.015625 -42.039062 7.484375 -44.398438 8.421875 -46.546875 C 9.367188 -48.691406 10.765625 -50.554688 12.609375 -52.140625 C 14.460938 -53.722656 16.78125 -54.945312 19.5625 -55.8125 C 22.351562 -56.6875 25.5625 -57.125 29.1875 -57.125 Z M 29.1875 -57.125 "/></g></g></g></g></g><g transform="matrix(1, 0, 0, 1, 150, 240)"><g clip-path="url(#a11489dcc3)"><g fill="#ffffff" fill-opacity="1"><g transform="translate(0.793342, 13.0126)"><g><path d="M 2.734375 -2.078125 C 2.734375 -1.722656 2.738281 -1.441406 2.75 -1.234375 C 2.769531 -1.023438 2.816406 -0.863281 2.890625 -0.75 C 2.960938 -0.644531 3.066406 -0.570312 3.203125 -0.53125 C 3.347656 -0.5 3.546875 -0.472656 3.796875 -0.453125 L 3.796875 0 L 0.3125 0 L 0.3125 -0.453125 C 0.5625 -0.472656 0.757812 -0.5 0.90625 -0.53125 C 1.0625 -0.570312 1.175781 -0.644531 1.25 -0.75 C 1.332031 -0.851562 1.382812 -1.003906 1.40625 -1.203125 C 1.425781 -1.398438 1.4375 -1.664062 1.4375 -2 L 1.4375 -7.484375 C 1.4375 -8.003906 1.429688 -8.414062 1.421875 -8.71875 C 1.410156 -9.019531 1.382812 -9.25 1.34375 -9.40625 C 1.332031 -9.507812 1.304688 -9.59375 1.265625 -9.65625 C 1.222656 -9.726562 1.160156 -9.785156 1.078125 -9.828125 C 1.003906 -9.867188 0.898438 -9.894531 0.765625 -9.90625 C 0.640625 -9.925781 0.476562 -9.9375 0.28125 -9.9375 L 0.28125 -10.375 L 2.703125 -10.875 L 2.703125 -5.890625 L 2.75 -5.890625 C 2.882812 -6.054688 3.050781 -6.210938 3.25 -6.359375 C 3.445312 -6.503906 3.65625 -6.628906 3.875 -6.734375 C 4.101562 -6.835938 4.34375 -6.921875 4.59375 -6.984375 C 4.84375 -7.046875 5.085938 -7.078125 5.328125 -7.078125 C 5.722656 -7.078125 6.085938 -7.003906 6.421875 -6.859375 C 6.765625 -6.722656 7.023438 -6.539062 7.203125 -6.3125 C 7.359375 -6.101562 7.46875 -5.832031 7.53125 -5.5 C 7.601562 -5.175781 7.640625 -4.738281 7.640625 -4.1875 L 7.640625 -2.078125 C 7.640625 -1.722656 7.644531 -1.441406 7.65625 -1.234375 C 7.675781 -1.035156 7.722656 -0.878906 7.796875 -0.765625 C 7.878906 -0.648438 7.988281 -0.570312 8.125 -0.53125 C 8.269531 -0.5 8.46875 -0.472656 8.71875 -0.453125 L 8.71875 0 L 5.25 0 L 5.25 -0.453125 C 5.488281 -0.460938 5.679688 -0.488281 5.828125 -0.53125 C 5.984375 -0.570312 6.097656 -0.644531 6.171875 -0.75 C 6.242188 -0.851562 6.289062 -1.003906 6.3125 -1.203125 C 6.332031 -1.398438 6.34375 -1.664062 6.34375 -2 L 6.34375 -3.640625 C 6.34375 -4.617188 6.226562 -5.316406 6 -5.734375 C 5.769531 -6.148438 5.390625 -6.359375 4.859375 -6.359375 C 4.453125 -6.359375 4.078125 -6.253906 3.734375 -6.046875 C 3.398438 -5.835938 3.140625 -5.546875 2.953125 -5.171875 C 2.910156 -5.078125 2.875 -4.988281 2.84375 -4.90625 C 2.8125 -4.820312 2.785156 -4.726562 2.765625 -4.625 C 2.742188 -4.519531 2.734375 -4.398438 2.734375 -4.265625 C 2.734375 -4.128906 2.734375 -3.960938 2.734375 -3.765625 Z M 2.734375 -2.078125 "/></g></g></g><g fill="#ffffff" fill-opacity="1"><g transform="translate(10.730135, 13.0126)"><g><path d="M 4.578125 -3.875 C 4.078125 -3.6875 3.65625 -3.5 3.3125 -3.3125 C 2.96875 -3.132812 2.6875 -2.953125 2.46875 -2.765625 C 2.257812 -2.578125 2.109375 -2.390625 2.015625 -2.203125 C 1.929688 -2.023438 1.890625 -1.84375 1.890625 -1.65625 C 1.890625 -1.363281 1.984375 -1.125 2.171875 -0.9375 C 2.367188 -0.757812 2.625 -0.671875 2.9375 -0.671875 C 3.164062 -0.671875 3.378906 -0.726562 3.578125 -0.84375 C 3.773438 -0.957031 3.945312 -1.109375 4.09375 -1.296875 C 4.238281 -1.492188 4.351562 -1.726562 4.4375 -2 C 4.53125 -2.269531 4.578125 -2.550781 4.578125 -2.84375 Z M 4.578125 -4.4375 L 4.578125 -4.984375 C 4.578125 -6.046875 4.125 -6.578125 3.21875 -6.578125 C 3.0625 -6.578125 2.929688 -6.5625 2.828125 -6.53125 C 2.722656 -6.507812 2.632812 -6.46875 2.5625 -6.40625 C 2.5 -6.34375 2.4375 -6.253906 2.375 -6.140625 C 2.320312 -6.035156 2.269531 -5.898438 2.21875 -5.734375 C 2.125 -5.472656 2.03125 -5.300781 1.9375 -5.21875 C 1.84375 -5.132812 1.707031 -5.09375 1.53125 -5.09375 C 1.09375 -5.09375 0.875 -5.3125 0.875 -5.75 C 0.875 -6.175781 1.097656 -6.503906 1.546875 -6.734375 C 1.992188 -6.960938 2.628906 -7.078125 3.453125 -7.078125 C 4.328125 -7.078125 4.945312 -6.921875 5.3125 -6.609375 C 5.675781 -6.296875 5.859375 -5.769531 5.859375 -5.03125 L 5.859375 -2.09375 C 5.859375 -1.101562 6.054688 -0.609375 6.453125 -0.609375 C 6.578125 -0.609375 6.691406 -0.617188 6.796875 -0.640625 C 6.910156 -0.671875 7.007812 -0.753906 7.09375 -0.890625 L 7.28125 -0.578125 C 7.175781 -0.378906 6.984375 -0.210938 6.703125 -0.078125 C 6.421875 0.0546875 6.128906 0.125 5.828125 0.125 C 5.441406 0.125 5.15625 0.00390625 4.96875 -0.234375 C 4.78125 -0.484375 4.6875 -0.828125 4.6875 -1.265625 L 4.609375 -1.265625 C 4.390625 -0.835938 4.078125 -0.5 3.671875 -0.25 C 3.265625 0 2.816406 0.125 2.328125 0.125 C 1.773438 0.125 1.34375 -0.015625 1.03125 -0.296875 C 0.71875 -0.578125 0.5625 -0.953125 0.5625 -1.421875 C 0.5625 -1.640625 0.597656 -1.84375 0.671875 -2.03125 C 0.742188 -2.226562 0.863281 -2.410156 1.03125 -2.578125 C 1.195312 -2.753906 1.414062 -2.925781 1.6875 -3.09375 C 1.957031 -3.269531 2.289062 -3.445312 2.6875 -3.625 Z M 4.578125 -4.4375 "/></g></g></g><g fill="#ffffff" fill-opacity="1"><g transform="translate(18.910396, 13.0126)"><g><path d="M 2.90625 -2.078125 C 2.90625 -1.722656 2.914062 -1.441406 2.9375 -1.234375 C 2.957031 -1.023438 3.003906 -0.863281 3.078125 -0.75 C 3.148438 -0.644531 3.253906 -0.570312 3.390625 -0.53125 C 3.535156 -0.5 3.734375 -0.472656 3.984375 -0.453125 L 3.984375 0 L 0.5 0 L 0.5 -0.453125 C 0.75 -0.460938 0.945312 -0.488281 1.09375 -0.53125 C 1.25 -0.570312 1.363281 -0.644531 1.4375 -0.75 C 1.519531 -0.851562 1.570312 -1.003906 1.59375 -1.203125 C 1.613281 -1.398438 1.625 -1.664062 1.625 -2 L 1.625 -3.53125 C 1.625 -4.125 1.617188 -4.585938 1.609375 -4.921875 C 1.597656 -5.253906 1.550781 -5.5 1.46875 -5.65625 C 1.394531 -5.8125 1.28125 -5.90625 1.125 -5.9375 C 0.96875 -5.96875 0.75 -5.984375 0.46875 -5.984375 L 0.46875 -6.4375 L 2.765625 -6.9375 L 2.953125 -5.3125 L 3 -5.3125 C 3.113281 -5.570312 3.253906 -5.8125 3.421875 -6.03125 C 3.597656 -6.25 3.785156 -6.429688 3.984375 -6.578125 C 4.179688 -6.734375 4.390625 -6.851562 4.609375 -6.9375 C 4.828125 -7.03125 5.050781 -7.078125 5.28125 -7.078125 C 5.5625 -7.078125 5.78125 -7.007812 5.9375 -6.875 C 6.101562 -6.738281 6.1875 -6.554688 6.1875 -6.328125 C 6.1875 -6.117188 6.117188 -5.953125 5.984375 -5.828125 C 5.859375 -5.710938 5.671875 -5.65625 5.421875 -5.65625 C 5.285156 -5.65625 5.164062 -5.671875 5.0625 -5.703125 C 4.96875 -5.742188 4.882812 -5.785156 4.8125 -5.828125 C 4.738281 -5.867188 4.671875 -5.90625 4.609375 -5.9375 C 4.546875 -5.96875 4.472656 -5.984375 4.390625 -5.984375 C 4.148438 -5.984375 3.910156 -5.832031 3.671875 -5.53125 C 3.441406 -5.238281 3.265625 -4.859375 3.140625 -4.390625 C 3.066406 -4.140625 3.007812 -3.851562 2.96875 -3.53125 C 2.925781 -3.207031 2.90625 -2.875 2.90625 -2.53125 Z M 2.90625 -2.078125 "/></g></g></g><g fill="#ffffff" fill-opacity="1"><g transform="translate(26.081321, 13.0126)"><g><path d="M 6.34375 -1.09375 L 6.296875 -1.09375 C 5.984375 -0.65625 5.648438 -0.34375 5.296875 -0.15625 C 4.941406 0.03125 4.519531 0.125 4.03125 0.125 C 3.539062 0.125 3.085938 0.0351562 2.671875 -0.140625 C 2.253906 -0.316406 1.894531 -0.5625 1.59375 -0.875 C 1.289062 -1.195312 1.050781 -1.582031 0.875 -2.03125 C 0.707031 -2.476562 0.625 -2.960938 0.625 -3.484375 C 0.625 -4.003906 0.707031 -4.484375 0.875 -4.921875 C 1.050781 -5.359375 1.289062 -5.738281 1.59375 -6.0625 C 1.894531 -6.382812 2.253906 -6.632812 2.671875 -6.8125 C 3.085938 -6.988281 3.539062 -7.078125 4.03125 -7.078125 C 4.457031 -7.078125 4.832031 -7.003906 5.15625 -6.859375 C 5.488281 -6.722656 5.804688 -6.503906 6.109375 -6.203125 L 6.109375 -7.53125 C 6.109375 -8.03125 6.097656 -8.445312 6.078125 -8.78125 C 6.066406 -9.113281 6.050781 -9.34375 6.03125 -9.46875 C 5.988281 -9.65625 5.863281 -9.785156 5.65625 -9.859375 C 5.457031 -9.941406 5.132812 -9.984375 4.6875 -9.984375 L 4.6875 -10.375 L 7.375 -10.875 L 7.375 -3.3125 C 7.375 -2.707031 7.375 -2.210938 7.375 -1.828125 C 7.382812 -1.441406 7.410156 -1.164062 7.453125 -1 C 7.484375 -0.894531 7.515625 -0.804688 7.546875 -0.734375 C 7.585938 -0.660156 7.644531 -0.601562 7.71875 -0.5625 C 7.800781 -0.53125 7.90625 -0.503906 8.03125 -0.484375 C 8.15625 -0.460938 8.316406 -0.453125 8.515625 -0.453125 L 8.515625 -0.015625 L 6.34375 0.125 Z M 6.078125 -4 C 6.078125 -4.457031 6.050781 -4.800781 6 -5.03125 C 5.957031 -5.269531 5.867188 -5.476562 5.734375 -5.65625 C 5.523438 -5.914062 5.265625 -6.113281 4.953125 -6.25 C 4.648438 -6.382812 4.34375 -6.453125 4.03125 -6.453125 C 3.40625 -6.453125 2.925781 -6.191406 2.59375 -5.671875 C 2.269531 -5.148438 2.109375 -4.441406 2.109375 -3.546875 C 2.109375 -3.085938 2.148438 -2.671875 2.234375 -2.296875 C 2.316406 -1.921875 2.4375 -1.597656 2.59375 -1.328125 C 2.757812 -1.066406 2.960938 -0.863281 3.203125 -0.71875 C 3.441406 -0.570312 3.71875 -0.5 4.03125 -0.5 C 4.195312 -0.5 4.359375 -0.515625 4.515625 -0.546875 C 4.679688 -0.585938 4.835938 -0.644531 4.984375 -0.71875 C 5.140625 -0.789062 5.28125 -0.875 5.40625 -0.96875 C 5.539062 -1.070312 5.648438 -1.191406 5.734375 -1.328125 C 5.859375 -1.515625 5.945312 -1.742188 6 -2.015625 C 6.050781 -2.285156 6.078125 -2.660156 6.078125 -3.140625 Z M 6.078125 -4 "/></g></g></g><g fill="#ffffff" fill-opacity="1"><g transform="translate(35.847699, 13.0126)"><g><path d="M 3.640625 0.125 L 3.15625 0.125 L 1.453125 -5.328125 C 1.378906 -5.566406 1.304688 -5.757812 1.234375 -5.90625 C 1.160156 -6.0625 1.078125 -6.179688 0.984375 -6.265625 C 0.890625 -6.347656 0.773438 -6.40625 0.640625 -6.4375 C 0.515625 -6.46875 0.351562 -6.484375 0.15625 -6.484375 L 0.15625 -6.953125 L 3.625 -6.953125 L 3.625 -6.484375 C 3.289062 -6.484375 3.050781 -6.441406 2.90625 -6.359375 C 2.769531 -6.285156 2.703125 -6.15625 2.703125 -5.96875 C 2.703125 -5.875 2.710938 -5.769531 2.734375 -5.65625 C 2.765625 -5.539062 2.800781 -5.394531 2.84375 -5.21875 L 3.734375 -2.078125 L 3.78125 -2.078125 L 5.71875 -6.953125 L 6.125 -6.953125 L 7.859375 -2.078125 L 7.921875 -2.078125 L 8.703125 -4.203125 C 8.804688 -4.492188 8.894531 -4.738281 8.96875 -4.9375 C 9.039062 -5.132812 9.09375 -5.300781 9.125 -5.4375 C 9.164062 -5.570312 9.191406 -5.679688 9.203125 -5.765625 C 9.222656 -5.859375 9.234375 -5.941406 9.234375 -6.015625 C 9.234375 -6.210938 9.175781 -6.335938 9.0625 -6.390625 C 8.957031 -6.453125 8.722656 -6.484375 8.359375 -6.484375 L 8.359375 -6.953125 L 10.984375 -6.953125 L 10.984375 -6.484375 C 10.859375 -6.484375 10.75 -6.460938 10.65625 -6.421875 C 10.5625 -6.390625 10.46875 -6.316406 10.375 -6.203125 C 10.28125 -6.085938 10.1875 -5.925781 10.09375 -5.71875 C 10 -5.507812 9.878906 -5.234375 9.734375 -4.890625 L 7.703125 0.125 L 7.21875 0.125 L 5.625 -4.703125 L 5.578125 -4.703125 Z M 3.640625 0.125 "/></g></g></g><g fill="#ffffff" fill-opacity="1"><g transform="translate(47.934264, 13.0126)"><g><path d="M 4.578125 -3.875 C 4.078125 -3.6875 3.65625 -3.5 3.3125 -3.3125 C 2.96875 -3.132812 2.6875 -2.953125 2.46875 -2.765625 C 2.257812 -2.578125 2.109375 -2.390625 2.015625 -2.203125 C 1.929688 -2.023438 1.890625 -1.84375 1.890625 -1.65625 C 1.890625 -1.363281 1.984375 -1.125 2.171875 -0.9375 C 2.367188 -0.757812 2.625 -0.671875 2.9375 -0.671875 C 3.164062 -0.671875 3.378906 -0.726562 3.578125 -0.84375 C 3.773438 -0.957031 3.945312 -1.109375 4.09375 -1.296875 C 4.238281 -1.492188 4.351562 -1.726562 4.4375 -2 C 4.53125 -2.269531 4.578125 -2.550781 4.578125 -2.84375 Z M 4.578125 -4.4375 L 4.578125 -4.984375 C 4.578125 -6.046875 4.125 -6.578125 3.21875 -6.578125 C 3.0625 -6.578125 2.929688 -6.5625 2.828125 -6.53125 C 2.722656 -6.507812 2.632812 -6.46875 2.5625 -6.40625 C 2.5 -6.34375 2.4375 -6.253906 2.375 -6.140625 C 2.320312 -6.035156 2.269531 -5.898438 2.21875 -5.734375 C 2.125 -5.472656 2.03125 -5.300781 1.9375 -5.21875 C 1.84375 -5.132812 1.707031 -5.09375 1.53125 -5.09375 C 1.09375 -5.09375 0.875 -5.3125 0.875 -5.75 C 0.875 -6.175781 1.097656 -6.503906 1.546875 -6.734375 C 1.992188 -6.960938 2.628906 -7.078125 3.453125 -7.078125 C 4.328125 -7.078125 4.945312 -6.921875 5.3125 -6.609375 C 5.675781 -6.296875 5.859375 -5.769531 5.859375 -5.03125 L 5.859375 -2.09375 C 5.859375 -1.101562 6.054688 -0.609375 6.453125 -0.609375 C 6.578125 -0.609375 6.691406 -0.617188 6.796875 -0.640625 C 6.910156 -0.671875 7.007812 -0.753906 7.09375 -0.890625 L 7.28125 -0.578125 C 7.175781 -0.378906 6.984375 -0.210938 6.703125 -0.078125 C 6.421875 0.0546875 6.128906 0.125 5.828125 0.125 C 5.441406 0.125 5.15625 0.00390625 4.96875 -0.234375 C 4.78125 -0.484375 4.6875 -0.828125 4.6875 -1.265625 L 4.609375 -1.265625 C 4.390625 -0.835938 4.078125 -0.5 3.671875 -0.25 C 3.265625 0 2.816406 0.125 2.328125 0.125 C 1.773438 0.125 1.34375 -0.015625 1.03125 -0.296875 C 0.71875 -0.578125 0.5625 -0.953125 0.5625 -1.421875 C 0.5625 -1.640625 0.597656 -1.84375 0.671875 -2.03125 C 0.742188 -2.226562 0.863281 -2.410156 1.03125 -2.578125 C 1.195312 -2.753906 1.414062 -2.925781 1.6875 -3.09375 C 1.957031 -3.269531 2.289062 -3.445312 2.6875 -3.625 Z M 4.578125 -4.4375 "/></g></g></g><g fill="#ffffff" fill-opacity="1"><g transform="translate(56.114526, 13.0126)"><g><path d="M 2.90625 -2.078125 C 2.90625 -1.722656 2.914062 -1.441406 2.9375 -1.234375 C 2.957031 -1.023438 3.003906 -0.863281 3.078125 -0.75 C 3.148438 -0.644531 3.253906 -0.570312 3.390625 -0.53125 C 3.535156 -0.5 3.734375 -0.472656 3.984375 -0.453125 L 3.984375 0 L 0.5 0 L 0.5 -0.453125 C 0.75 -0.460938 0.945312 -0.488281 1.09375 -0.53125 C 1.25 -0.570312 1.363281 -0.644531 1.4375 -0.75 C 1.519531 -0.851562 1.570312 -1.003906 1.59375 -1.203125 C 1.613281 -1.398438 1.625 -1.664062 1.625 -2 L 1.625 -3.53125 C 1.625 -4.125 1.617188 -4.585938 1.609375 -4.921875 C 1.597656 -5.253906 1.550781 -5.5 1.46875 -5.65625 C 1.394531 -5.8125 1.28125 -5.90625 1.125 -5.9375 C 0.96875 -5.96875 0.75 -5.984375 0.46875 -5.984375 L 0.46875 -6.4375 L 2.765625 -6.9375 L 2.953125 -5.3125 L 3 -5.3125 C 3.113281 -5.570312 3.253906 -5.8125 3.421875 -6.03125 C 3.597656 -6.25 3.785156 -6.429688 3.984375 -6.578125 C 4.179688 -6.734375 4.390625 -6.851562 4.609375 -6.9375 C 4.828125 -7.03125 5.050781 -7.078125 5.28125 -7.078125 C 5.5625 -7.078125 5.78125 -7.007812 5.9375 -6.875 C 6.101562 -6.738281 6.1875 -6.554688 6.1875 -6.328125 C 6.1875 -6.117188 6.117188 -5.953125 5.984375 -5.828125 C 5.859375 -5.710938 5.671875 -5.65625 5.421875 -5.65625 C 5.285156 -5.65625 5.164062 -5.671875 5.0625 -5.703125 C 4.96875 -5.742188 4.882812 -5.785156 4.8125 -5.828125 C 4.738281 -5.867188 4.671875 -5.90625 4.609375 -5.9375 C 4.546875 -5.96875 4.472656 -5.984375 4.390625 -5.984375 C 4.148438 -5.984375 3.910156 -5.832031 3.671875 -5.53125 C 3.441406 -5.238281 3.265625 -4.859375 3.140625 -4.390625 C 3.066406 -4.140625 3.007812 -3.851562 2.96875 -3.53125 C 2.925781 -3.207031 2.90625 -2.875 2.90625 -2.53125 Z M 2.90625 -2.078125 "/></g></g></g><g fill="#ffffff" fill-opacity="1"><g transform="translate(63.285451, 13.0126)"><g><path d="M 6.84375 -1.21875 C 6.101562 -0.320312 5.179688 0.125 4.078125 0.125 C 3.554688 0.125 3.085938 0.0390625 2.671875 -0.125 C 2.253906 -0.289062 1.894531 -0.53125 1.59375 -0.84375 C 1.289062 -1.15625 1.054688 -1.523438 0.890625 -1.953125 C 0.722656 -2.390625 0.640625 -2.867188 0.640625 -3.390625 C 0.640625 -3.921875 0.726562 -4.414062 0.90625 -4.875 C 1.082031 -5.332031 1.328125 -5.722656 1.640625 -6.046875 C 1.960938 -6.367188 2.34375 -6.617188 2.78125 -6.796875 C 3.226562 -6.984375 3.710938 -7.078125 4.234375 -7.078125 C 5.078125 -7.078125 5.726562 -6.847656 6.1875 -6.390625 C 6.65625 -5.929688 6.890625 -5.273438 6.890625 -4.421875 C 6.890625 -4.296875 6.863281 -4.21875 6.8125 -4.1875 C 6.769531 -4.164062 6.660156 -4.15625 6.484375 -4.15625 L 2.171875 -4.15625 C 2.160156 -4.082031 2.148438 -3.992188 2.140625 -3.890625 C 2.128906 -3.796875 2.125 -3.6875 2.125 -3.5625 C 2.125 -3.113281 2.175781 -2.703125 2.28125 -2.328125 C 2.394531 -1.953125 2.550781 -1.632812 2.75 -1.375 C 2.957031 -1.113281 3.203125 -0.910156 3.484375 -0.765625 C 3.773438 -0.617188 4.09375 -0.546875 4.4375 -0.546875 C 4.8125 -0.546875 5.15625 -0.625 5.46875 -0.78125 C 5.78125 -0.945312 6.101562 -1.21875 6.4375 -1.59375 Z M 4.6875 -4.765625 C 4.851562 -4.765625 4.988281 -4.765625 5.09375 -4.765625 C 5.195312 -4.773438 5.273438 -4.789062 5.328125 -4.8125 C 5.390625 -4.84375 5.425781 -4.878906 5.4375 -4.921875 C 5.457031 -4.972656 5.46875 -5.039062 5.46875 -5.125 C 5.46875 -5.53125 5.335938 -5.851562 5.078125 -6.09375 C 4.816406 -6.332031 4.46875 -6.453125 4.03125 -6.453125 C 3.082031 -6.453125 2.492188 -5.890625 2.265625 -4.765625 Z M 4.6875 -4.765625 "/></g></g></g><g fill="#ffffff" fill-opacity="1"><g transform="translate(71.714773, 13.0126)"><g/></g></g><g fill="#ffffff" fill-opacity="1"><g transform="translate(76.395111, 13.0126)"><g><path d="M 4.546875 -6 C 4.960938 -6.320312 5.265625 -6.648438 5.453125 -6.984375 C 5.648438 -7.328125 5.75 -7.695312 5.75 -8.09375 C 5.75 -8.5 5.65625 -8.820312 5.46875 -9.0625 C 5.289062 -9.300781 5.050781 -9.421875 4.75 -9.421875 C 4.164062 -9.421875 3.875 -8.984375 3.875 -8.109375 C 3.875 -7.722656 3.929688 -7.351562 4.046875 -7 C 4.160156 -6.644531 4.328125 -6.3125 4.546875 -6 Z M 3.796875 -4.765625 C 3.242188 -4.453125 2.816406 -4.082031 2.515625 -3.65625 C 2.210938 -3.238281 2.0625 -2.800781 2.0625 -2.34375 C 2.0625 -1.863281 2.210938 -1.46875 2.515625 -1.15625 C 2.828125 -0.84375 3.226562 -0.6875 3.71875 -0.6875 C 4.09375 -0.6875 4.488281 -0.78125 4.90625 -0.96875 C 5.320312 -1.15625 5.71875 -1.414062 6.09375 -1.75 Z M 7.046875 -2.734375 C 7.253906 -3.003906 7.445312 -3.257812 7.625 -3.5 C 7.800781 -3.75 7.953125 -3.984375 8.078125 -4.203125 C 8.210938 -4.429688 8.316406 -4.632812 8.390625 -4.8125 C 8.460938 -5 8.5 -5.148438 8.5 -5.265625 C 8.5 -5.410156 8.429688 -5.507812 8.296875 -5.5625 C 8.171875 -5.625 7.96875 -5.65625 7.6875 -5.65625 L 7.6875 -6.125 L 10.703125 -6.125 L 10.703125 -5.65625 C 10.515625 -5.65625 10.351562 -5.644531 10.21875 -5.625 C 10.082031 -5.601562 9.960938 -5.566406 9.859375 -5.515625 C 9.753906 -5.460938 9.65625 -5.390625 9.5625 -5.296875 C 9.46875 -5.210938 9.378906 -5.101562 9.296875 -4.96875 L 7.4375 -2.234375 C 7.800781 -1.742188 8.179688 -1.367188 8.578125 -1.109375 C 8.972656 -0.847656 9.367188 -0.71875 9.765625 -0.71875 C 9.878906 -0.71875 9.976562 -0.726562 10.0625 -0.75 C 10.15625 -0.769531 10.238281 -0.804688 10.3125 -0.859375 C 10.382812 -0.921875 10.453125 -1 10.515625 -1.09375 C 10.585938 -1.195312 10.65625 -1.320312 10.71875 -1.46875 L 11.046875 -1.375 C 10.953125 -0.882812 10.738281 -0.507812 10.40625 -0.25 C 10.070312 0 9.640625 0.125 9.109375 0.125 C 8.890625 0.125 8.679688 0.0976562 8.484375 0.046875 C 8.285156 0.00390625 8.085938 -0.0703125 7.890625 -0.1875 C 7.691406 -0.300781 7.476562 -0.445312 7.25 -0.625 C 7.019531 -0.8125 6.769531 -1.039062 6.5 -1.3125 C 6.0625 -0.851562 5.554688 -0.5 4.984375 -0.25 C 4.410156 0 3.828125 0.125 3.234375 0.125 C 2.835938 0.125 2.46875 0.0664062 2.125 -0.046875 C 1.789062 -0.160156 1.5 -0.320312 1.25 -0.53125 C 1.007812 -0.738281 0.816406 -0.984375 0.671875 -1.265625 C 0.535156 -1.546875 0.46875 -1.851562 0.46875 -2.1875 C 0.46875 -2.78125 0.703125 -3.328125 1.171875 -3.828125 C 1.648438 -4.335938 2.410156 -4.84375 3.453125 -5.34375 C 3.171875 -5.757812 2.960938 -6.144531 2.828125 -6.5 C 2.703125 -6.863281 2.640625 -7.238281 2.640625 -7.625 C 2.640625 -8.007812 2.691406 -8.359375 2.796875 -8.671875 C 2.910156 -8.992188 3.066406 -9.269531 3.265625 -9.5 C 3.472656 -9.726562 3.71875 -9.90625 4 -10.03125 C 4.28125 -10.15625 4.585938 -10.21875 4.921875 -10.21875 C 5.222656 -10.21875 5.5 -10.171875 5.75 -10.078125 C 6 -9.984375 6.210938 -9.847656 6.390625 -9.671875 C 6.578125 -9.492188 6.71875 -9.285156 6.8125 -9.046875 C 6.914062 -8.816406 6.96875 -8.554688 6.96875 -8.265625 C 6.96875 -7.773438 6.804688 -7.316406 6.484375 -6.890625 C 6.171875 -6.460938 5.648438 -6 4.921875 -5.5 Z M 7.046875 -2.734375 "/></g></g></g><g fill="#ffffff" fill-opacity="1"><g transform="translate(88.822491, 13.0126)"><g/></g></g><g fill="#ffffff" fill-opacity="1"><g transform="translate(93.502829, 13.0126)"><g><path d="M 0.53125 -6.125 L 0.53125 -6.609375 C 0.988281 -6.878906 1.347656 -7.148438 1.609375 -7.421875 C 1.867188 -7.691406 2.070312 -8.015625 2.21875 -8.390625 L 2.59375 -8.390625 L 2.59375 -6.734375 L 4.359375 -6.734375 L 4.359375 -6.125 L 2.59375 -6.125 L 2.59375 -2.140625 C 2.59375 -1.828125 2.609375 -1.566406 2.640625 -1.359375 C 2.671875 -1.148438 2.71875 -0.984375 2.78125 -0.859375 C 2.851562 -0.734375 2.945312 -0.644531 3.0625 -0.59375 C 3.175781 -0.539062 3.320312 -0.515625 3.5 -0.515625 C 3.71875 -0.515625 3.898438 -0.554688 4.046875 -0.640625 C 4.203125 -0.734375 4.359375 -0.890625 4.515625 -1.109375 L 4.84375 -0.859375 C 4.71875 -0.535156 4.503906 -0.289062 4.203125 -0.125 C 3.898438 0.0390625 3.523438 0.125 3.078125 0.125 C 2.503906 0.125 2.066406 -0.0078125 1.765625 -0.28125 C 1.460938 -0.550781 1.3125 -0.945312 1.3125 -1.46875 L 1.3125 -6.125 Z M 0.53125 -6.125 "/></g></g></g><g fill="#ffffff" fill-opacity="1"><g transform="translate(99.376028, 13.0126)"><g><path d="M 6.84375 -1.21875 C 6.101562 -0.320312 5.179688 0.125 4.078125 0.125 C 3.554688 0.125 3.085938 0.0390625 2.671875 -0.125 C 2.253906 -0.289062 1.894531 -0.53125 1.59375 -0.84375 C 1.289062 -1.15625 1.054688 -1.523438 0.890625 -1.953125 C 0.722656 -2.390625 0.640625 -2.867188 0.640625 -3.390625 C 0.640625 -3.921875 0.726562 -4.414062 0.90625 -4.875 C 1.082031 -5.332031 1.328125 -5.722656 1.640625 -6.046875 C 1.960938 -6.367188 2.34375 -6.617188 2.78125 -6.796875 C 3.226562 -6.984375 3.710938 -7.078125 4.234375 -7.078125 C 5.078125 -7.078125 5.726562 -6.847656 6.1875 -6.390625 C 6.65625 -5.929688 6.890625 -5.273438 6.890625 -4.421875 C 6.890625 -4.296875 6.863281 -4.21875 6.8125 -4.1875 C 6.769531 -4.164062 6.660156 -4.15625 6.484375 -4.15625 L 2.171875 -4.15625 C 2.160156 -4.082031 2.148438 -3.992188 2.140625 -3.890625 C 2.128906 -3.796875 2.125 -3.6875 2.125 -3.5625 C 2.125 -3.113281 2.175781 -2.703125 2.28125 -2.328125 C 2.394531 -1.953125 2.550781 -1.632812 2.75 -1.375 C 2.957031 -1.113281 3.203125 -0.910156 3.484375 -0.765625 C 3.773438 -0.617188 4.09375 -0.546875 4.4375 -0.546875 C 4.8125 -0.546875 5.15625 -0.625 5.46875 -0.78125 C 5.78125 -0.945312 6.101562 -1.21875 6.4375 -1.59375 Z M 4.6875 -4.765625 C 4.851562 -4.765625 4.988281 -4.765625 5.09375 -4.765625 C 5.195312 -4.773438 5.273438 -4.789062 5.328125 -4.8125 C 5.390625 -4.84375 5.425781 -4.878906 5.4375 -4.921875 C 5.457031 -4.972656 5.46875 -5.039062 5.46875 -5.125 C 5.46875 -5.53125 5.335938 -5.851562 5.078125 -6.09375 C 4.816406 -6.332031 4.46875 -6.453125 4.03125 -6.453125 C 3.082031 -6.453125 2.492188 -5.890625 2.265625 -4.765625 Z M 4.6875 -4.765625 "/></g></g></g><g fill="#ffffff" fill-opacity="1"><g transform="translate(107.80535, 13.0126)"><g><path d="M 6.640625 -1.09375 C 6.316406 -0.707031 5.90625 -0.40625 5.40625 -0.1875 C 4.914062 0.0195312 4.378906 0.125 3.796875 0.125 C 3.335938 0.125 2.910156 0.0390625 2.515625 -0.125 C 2.128906 -0.289062 1.796875 -0.53125 1.515625 -0.84375 C 1.234375 -1.15625 1.015625 -1.53125 0.859375 -1.96875 C 0.710938 -2.40625 0.640625 -2.890625 0.640625 -3.421875 C 0.640625 -3.984375 0.726562 -4.488281 0.90625 -4.9375 C 1.082031 -5.382812 1.328125 -5.765625 1.640625 -6.078125 C 1.960938 -6.398438 2.347656 -6.644531 2.796875 -6.8125 C 3.242188 -6.988281 3.738281 -7.078125 4.28125 -7.078125 C 4.625 -7.078125 4.9375 -7.046875 5.21875 -6.984375 C 5.5 -6.929688 5.738281 -6.851562 5.9375 -6.75 C 6.144531 -6.65625 6.304688 -6.535156 6.421875 -6.390625 C 6.535156 -6.242188 6.59375 -6.085938 6.59375 -5.921875 C 6.59375 -5.742188 6.535156 -5.609375 6.421875 -5.515625 C 6.304688 -5.421875 6.148438 -5.375 5.953125 -5.375 C 5.796875 -5.375 5.664062 -5.40625 5.5625 -5.46875 C 5.457031 -5.539062 5.320312 -5.6875 5.15625 -5.90625 C 4.976562 -6.113281 4.804688 -6.257812 4.640625 -6.34375 C 4.484375 -6.425781 4.28125 -6.46875 4.03125 -6.46875 C 3.40625 -6.46875 2.929688 -6.222656 2.609375 -5.734375 C 2.296875 -5.253906 2.140625 -4.550781 2.140625 -3.625 C 2.140625 -2.613281 2.316406 -1.847656 2.671875 -1.328125 C 3.023438 -0.804688 3.539062 -0.546875 4.21875 -0.546875 C 4.582031 -0.546875 4.925781 -0.617188 5.25 -0.765625 C 5.570312 -0.910156 5.898438 -1.144531 6.234375 -1.46875 Z M 6.640625 -1.09375 "/></g></g></g><g fill="#ffffff" fill-opacity="1"><g transform="translate(115.749661, 13.0126)"><g><path d="M 2.734375 -2.078125 C 2.734375 -1.722656 2.738281 -1.441406 2.75 -1.234375 C 2.769531 -1.023438 2.816406 -0.863281 2.890625 -0.75 C 2.960938 -0.644531 3.066406 -0.570312 3.203125 -0.53125 C 3.347656 -0.5 3.546875 -0.472656 3.796875 -0.453125 L 3.796875 0 L 0.3125 0 L 0.3125 -0.453125 C 0.5625 -0.472656 0.757812 -0.5 0.90625 -0.53125 C 1.0625 -0.570312 1.175781 -0.644531 1.25 -0.75 C 1.332031 -0.851562 1.382812 -1.003906 1.40625 -1.203125 C 1.425781 -1.398438 1.4375 -1.664062 1.4375 -2 L 1.4375 -7.484375 C 1.4375 -8.003906 1.429688 -8.414062 1.421875 -8.71875 C 1.410156 -9.019531 1.382812 -9.25 1.34375 -9.40625 C 1.332031 -9.507812 1.304688 -9.59375 1.265625 -9.65625 C 1.222656 -9.726562 1.160156 -9.785156 1.078125 -9.828125 C 1.003906 -9.867188 0.898438 -9.894531 0.765625 -9.90625 C 0.640625 -9.925781 0.476562 -9.9375 0.28125 -9.9375 L 0.28125 -10.375 L 2.703125 -10.875 L 2.703125 -5.890625 L 2.75 -5.890625 C 2.882812 -6.054688 3.050781 -6.210938 3.25 -6.359375 C 3.445312 -6.503906 3.65625 -6.628906 3.875 -6.734375 C 4.101562 -6.835938 4.34375 -6.921875 4.59375 -6.984375 C 4.84375 -7.046875 5.085938 -7.078125 5.328125 -7.078125 C 5.722656 -7.078125 6.085938 -7.003906 6.421875 -6.859375 C 6.765625 -6.722656 7.023438 -6.539062 7.203125 -6.3125 C 7.359375 -6.101562 7.46875 -5.832031 7.53125 -5.5 C 7.601562 -5.175781 7.640625 -4.738281 7.640625 -4.1875 L 7.640625 -2.078125 C 7.640625 -1.722656 7.644531 -1.441406 7.65625 -1.234375 C 7.675781 -1.035156 7.722656 -0.878906 7.796875 -0.765625 C 7.878906 -0.648438 7.988281 -0.570312 8.125 -0.53125 C 8.269531 -0.5 8.46875 -0.472656 8.71875 -0.453125 L 8.71875 0 L 5.25 0 L 5.25 -0.453125 C 5.488281 -0.460938 5.679688 -0.488281 5.828125 -0.53125 C 5.984375 -0.570312 6.097656 -0.644531 6.171875 -0.75 C 6.242188 -0.851562 6.289062 -1.003906 6.3125 -1.203125 C 6.332031 -1.398438 6.34375 -1.664062 6.34375 -2 L 6.34375 -3.640625 C 6.34375 -4.617188 6.226562 -5.316406 6 -5.734375 C 5.769531 -6.148438 5.390625 -6.359375 4.859375 -6.359375 C 4.453125 -6.359375 4.078125 -6.253906 3.734375 -6.046875 C 3.398438 -5.835938 3.140625 -5.546875 2.953125 -5.171875 C 2.910156 -5.078125 2.875 -4.988281 2.84375 -4.90625 C 2.8125 -4.820312 2.785156 -4.726562 2.765625 -4.625 C 2.742188 -4.519531 2.734375 -4.398438 2.734375 -4.265625 C 2.734375 -4.128906 2.734375 -3.960938 2.734375 -3.765625 Z M 2.734375 -2.078125 "/></g></g></g></g></g><g clip-path="url(#c4ddd66bd3)"><g transform="matrix(1, 0, 0, 1, 6, 246)"><g clip-path="url(#06a0ec8389)"><g clip-path="url(#f7a19563a5)"><path fill="#f8cc28" d="M 0.0351562 0.257812 L 126.414062 0.257812 L 126.414062 5.671875 L 0.0351562 5.671875 Z M 0.0351562 0.257812 " fill-opacity="1" fill-rule="nonzero"/></g></g></g></g><g clip-path="url(#c60454e374)"><g clip-path="url(#047cc0bcdb)"><g clip-path="url(#cbe309cb8b)"><g clip-path="url(#324c43dfa4)"><path fill="#808385" d="M 301.730469 140.683594 L 313.472656 160.585938 L 326.398438 169.617188 L 316.882812 183.292969 L 303.960938 174.265625 L 291.195312 157.660156 C 293.648438 155.765625 294.101562 152.238281 292.214844 149.78125 L 287.28125 143.363281 C 285.390625 140.90625 281.871094 140.453125 279.421875 142.347656 L 275.566406 137.332031 L 284.582031 130.289062 L 301.730469 140.683594 " fill-opacity="1" fill-rule="nonzero"/></g></g></g></g><g clip-path="url(#17d149e1c0)"><g clip-path="url(#1228e87d27)"><g clip-path="url(#d0f71ce76b)"><g clip-path="url(#6c8a919070)"><path fill="#9ca0a2" d="M 272.136719 163.558594 L 288.347656 180.007812 L 293.769531 194.835938 L 309.382812 189.09375 L 303.960938 174.265625 L 291.195312 157.660156 C 288.742188 159.554688 285.222656 159.101562 283.335938 156.644531 L 278.402344 150.226562 C 276.511719 147.769531 276.96875 144.242188 279.421875 142.347656 L 275.566406 137.332031 L 266.472656 144.285156 L 272.136719 163.558594 " fill-opacity="1" fill-rule="nonzero"/></g></g></g></g><g clip-path="url(#be64e248b4)"><g clip-path="url(#975f8a4470)"><g clip-path="url(#b9f59ddbf8)"><g clip-path="url(#91650a587d)"><path fill="#f5bb16" d="M 304.472656 185.984375 C 306.652344 185.121094 309.117188 186.191406 309.976562 188.375 C 310.835938 190.5625 309.765625 193.03125 307.585938 193.898438 L 298.210938 197.613281 C 296.027344 198.476562 293.566406 197.40625 292.703125 195.21875 C 291.84375 193.03125 292.914062 190.5625 295.09375 189.699219 L 304.472656 185.984375 " fill-opacity="1" fill-rule="nonzero"/></g></g></g></g><g clip-path="url(#dc5d95507d)"><g clip-path="url(#40cee37aa4)"><g clip-path="url(#e1dfcd9521)"><g clip-path="url(#7eb7576a63)"><path fill="#f5bb16" d="M 305.523438 192.589844 C 307.082031 191.972656 308.839844 192.738281 309.457031 194.300781 C 310.070312 195.859375 309.308594 197.625 307.75 198.242188 L 301.050781 200.894531 C 299.496094 201.511719 297.734375 200.746094 297.117188 199.1875 C 296.503906 197.625 297.269531 195.859375 298.828125 195.242188 L 305.523438 192.589844 " fill-opacity="1" fill-rule="nonzero"/></g></g></g></g><g clip-path="url(#cfb69e721e)"><g clip-path="url(#ff8ea1ee35)"><g clip-path="url(#85099d7915)"><g clip-path="url(#38fb118778)"><path fill="#f5bb16" d="M 304.613281 194.652344 C 307.414062 194.195312 310.230469 196.546875 311.242188 199.769531 C 315.984375 215.285156 326.007812 228.585938 339.503906 237.332031 C 342.3125 239.140625 343.320312 243.027344 341.542969 246.308594 C 341.183594 246.949219 340.824219 247.589844 340.464844 248.226562 C 338.695312 251.503906 334.300781 252.4375 330.9375 249.972656 C 315.199219 238.546875 304.011719 221.957031 299.335938 203.164062 C 298.34375 199.136719 300.152344 195.402344 302.945312 194.953125 C 303.5 194.851562 304.054688 194.753906 304.613281 194.652344 " fill-opacity="1" fill-rule="nonzero"/></g></g></g></g><g clip-path="url(#2b4aed7424)"><g clip-path="url(#89debc2009)"><g clip-path="url(#789288e8c1)"><g clip-path="url(#d17fb4db55)"><path fill="#f5bb16" d="M 315.238281 177.660156 C 313.851562 179.554688 314.257812 182.21875 316.144531 183.605469 C 318.035156 184.996094 320.691406 184.585938 322.078125 182.691406 L 328.046875 174.546875 C 329.4375 172.652344 329.03125 169.992188 327.140625 168.601562 C 325.25 167.207031 322.597656 167.617188 321.207031 169.511719 L 315.238281 177.660156 " fill-opacity="1" fill-rule="nonzero"/></g></g></g></g><g clip-path="url(#27fc70027a)"><g clip-path="url(#2c60b1304d)"><g clip-path="url(#92b627c702)"><g clip-path="url(#870ee11af8)"><path fill="#f5bb16" d="M 321.34375 180.363281 C 320.355469 181.714844 320.644531 183.617188 321.992188 184.609375 C 323.339844 185.601562 325.238281 185.308594 326.230469 183.957031 L 330.492188 178.136719 C 331.484375 176.785156 331.195312 174.882812 329.84375 173.890625 C 328.496094 172.898438 326.597656 173.1875 325.609375 174.542969 L 321.34375 180.363281 " fill-opacity="1" fill-rule="nonzero"/></g></g></g></g><g clip-path="url(#120f310f2b)"><g clip-path="url(#5d5209db15)"><g clip-path="url(#38981b9049)"><g clip-path="url(#680a55054a)"><path fill="#f5bb16" d="M 323.5625 180 C 322.410156 182.601562 323.964844 185.933594 326.8125 187.730469 C 340.574219 196.28125 350.855469 209.378906 355.855469 224.691406 C 356.886719 227.878906 360.375 229.84375 363.992188 228.953125 C 364.703125 228.769531 365.410156 228.582031 366.121094 228.398438 C 369.726562 227.515625 371.746094 223.492188 370.226562 219.601562 C 363.210938 201.433594 350.054688 186.367188 333.117188 177.050781 C 329.484375 175.066406 325.425781 175.871094 324.28125 178.460938 C 324.039062 178.976562 323.804688 179.488281 323.5625 180 " fill-opacity="1" fill-rule="nonzero"/></g></g></g></g><g clip-path="url(#8221f554bf)"><g clip-path="url(#b235746a4f)"><g clip-path="url(#77a6e4584c)"><g clip-path="url(#26b3fa0bcf)"><path fill="#808385" d="M 293.089844 160.125 C 296.609375 157.40625 301.65625 158.058594 304.367188 161.585938 C 307.078125 165.109375 306.425781 170.171875 302.90625 172.890625 C 299.386719 175.609375 294.339844 174.957031 291.628906 171.433594 C 288.917969 167.90625 289.570312 162.84375 293.089844 160.125 " fill-opacity="1" fill-rule="nonzero"/><path fill="#4c4b4c" d="M 293.089844 160.125 L 293.15625 160.210938 C 294.890625 158.867188 297.003906 158.359375 299.019531 158.617188 C 301.03125 158.878906 302.945312 159.910156 304.285156 161.648438 C 305.621094 163.390625 306.128906 165.507812 305.867188 167.527344 C 305.605469 169.546875 304.578125 171.464844 302.839844 172.808594 C 301.105469 174.152344 298.988281 174.660156 296.972656 174.398438 C 294.960938 174.136719 293.046875 173.105469 291.710938 171.367188 C 290.375 169.628906 289.867188 167.511719 290.125 165.492188 C 290.386719 163.472656 291.417969 161.550781 293.15625 160.210938 L 293.027344 160.042969 C 291.242188 161.417969 290.1875 163.390625 289.917969 165.464844 C 289.652344 167.539062 290.171875 169.710938 291.542969 171.496094 C 292.914062 173.28125 294.878906 174.339844 296.945312 174.605469 C 299.015625 174.875 301.1875 174.351562 302.96875 172.976562 C 304.75 171.597656 305.808594 169.625 306.078125 167.554688 C 306.34375 165.480469 305.824219 163.304688 304.453125 161.519531 C 303.078125 159.734375 301.113281 158.675781 299.046875 158.410156 C 296.976562 158.140625 294.808594 158.664062 293.027344 160.042969 L 293.089844 160.125 " fill-opacity="1" fill-rule="nonzero"/></g></g></g></g><g clip-path="url(#c878c4b804)"><g clip-path="url(#ad2dcd3d45)"><g clip-path="url(#64b8068787)"><g clip-path="url(#84f3e98384)"><path fill="#4c4b4c" d="M 295.765625 163.601562 C 297.363281 162.363281 299.664062 162.664062 300.898438 164.265625 C 302.132812 165.871094 301.835938 168.175781 300.234375 169.414062 C 298.628906 170.652344 296.332031 170.355469 295.097656 168.75 C 293.863281 167.144531 294.164062 164.839844 295.765625 163.601562 " fill-opacity="1" fill-rule="nonzero"/></g></g></g></g></svg>